<svg id="Layer_1" data-name="Layer 1" xmlns="http://www.w3.org/2000/svg" viewBox="0 0 244 245"><title>ICONS</title><g id="NBO20B.tif"><path d="M149.3,222.95c-2.69-1.24-4.78-3-5.65-6-1-3.48-.19-6.63,2.72-8.75,35-25.59,53.71-61.8,66.5-101.86a113,113,0,0,0,2.43-11.05,9.09,9.09,0,0,0,0-1.53c-2.17,1.86-4.06,3.6-6.07,5.2-21.51,17.07-45.74,14.29-65.55-1-9.43-7.26-15.8-16.73-18-28.53-3-15.75,2.75-28.54,14.41-38.89a56.61,56.61,0,0,1,31-13.86,8.07,8.07,0,0,0,1.4-.44h10.59c.19.13.37.35.58.39,24.68,5.16,40.72,19.7,47.56,44.06,1.1,3.91,1.53,8,2.27,12V86.84a4.48,4.48,0,0,0-.41,1.12c-1.26,15.45-5.54,30.14-11.46,44.36a234,234,0,0,1-47.18,72.55c-6.6,6.9-13.62,13.42-22.11,18.07ZM175.24,32.35c-8.45.05-14.65,1.76-20.2,5.63-10,7-15.35,19.5-13,30.14,3.52,15.69,20.42,29.08,41.17,25.47,13.47-2.34,22.38-11.09,29.19-22.35a1.69,1.69,0,0,0,.37-.91c-.7-5.11-.14-10.91-2.41-15.21C202.72,40.56,189.87,33.38,175.24,32.35Z"/><path d="M30.84,222.95a24.51,24.51,0,0,1-3.55-2.69c-3.35-3.62-3.12-9.21.83-12,30.6-21.69,47.83-52.86,61.56-86.5a120.2,120.2,0,0,0,7.68-28.41l-2,1.85c-11,10.12-23.57,16.43-38.87,15.3-22.16-1.63-45.75-18.39-49.45-43a3,3,0,0,0-.43-.83V57.1A4.72,4.72,0,0,0,7.11,56a37.75,37.75,0,0,1,5.95-15.33c8.11-12.19,19.7-19.32,33.68-22.86,2.4-.61,4.85-1,7.28-1.54H64.61c1.94.44,3.92.74,5.81,1.33,23.9,7.52,39.07,23.1,43.59,48.08,3.11,17.17.4,34-4.8,50.35-10.93,34.42-29.42,64.37-54.45,90.3a98.2,98.2,0,0,1-20.39,16.62ZM94.7,65.34c.75-5-1.08-9.3-4-13.08-2.75-3.56-5.6-7.23-9.08-10C70.9,33.72,58.83,30.07,45.16,33.88c-14.49,4-29.33,24-17.82,43A36.77,36.77,0,0,0,65,93.65c12-2.32,20.41-9.55,27.22-19.19C94.2,71.68,95.55,68.85,94.7,65.34Z"/></g></svg>