<svg id="Layer_1" data-name="Layer 1" xmlns="http://www.w3.org/2000/svg" viewBox="0 0 244 245"><defs><style>.cls-1{fill:#333;}</style></defs><title>ICONS</title><path class="cls-1" d="M46.45,121.5C46.27,60.19,97,10.92,158.31,13.38a18.41,18.41,0,0,1,12.18,5.88c3.56,4.34.81,9.29-2.5,13.74-40.2,54.1-7,130.35,60.18,138.41,5.23.63,10.28,1.5,12.31,7.26,2,5.58-.93,9.67-4.44,13.68a108.49,108.49,0,0,1-120,30C74.4,206.76,46.58,166.41,46.45,121.5Zm95-86C107,37.9,75.29,69.35,68.33,107.44c-6.83,37.38,14.78,77.22,50,93.31s74.77,4.32,89.13-11.54C143.18,169.71,111.28,98.41,141.41,35.55Z"/></svg>