<svg id="Layer_1" data-name="Layer 1" xmlns="http://www.w3.org/2000/svg" viewBox="0 0 244 245"><defs><style>.cls-1{stroke:#000;stroke-linecap:round;stroke-linejoin:bevel;stroke-width:0.5px;}</style></defs><title>ICONS</title><g id="nuzNDn.tif"><path class="cls-1" d="M15.22,45.19H233.56V219.27c-2.51.74-5,2.12-7.52,2.13-68.77.12-137.54,0-206.31.17-5.84,0-7.57-2.25-7.55-7.9.15-53.3,0-106.59.22-159.89C12.4,50.91,14.23,48.05,15.22,45.19ZM20.4,54.1V213h205V54.1Z"/><path class="cls-1" d="M124.06,153.63c12.93-14.12,24.37-26.29,35.4-38.82,3.88-4.41,6.67-4.45,10.86-.5,13.41,12.63,27.19,24.87,40.56,37.54,1.62,1.53,1.62,4.76,2.37,7.21-2.52-.6-5.73-.42-7.44-1.93-13.58-12-26.87-24.4-40.69-37.06l-35.9,39.3c5.91,5.28,11.91,10.29,17.4,15.81,1.4,1.41,1.15,4.45,1.66,6.74-2.33-.52-5.41-.27-6.87-1.68-12.51-12.11-24.72-24.52-37.59-37.39C93,152.36,82.48,161.53,72,170.73c-9.4,8.28-18.66,16.73-28.28,24.74-1.72,1.43-4.91,1.09-7.42,1.57.86-2.43,1-5.65,2.69-7.16,19.73-17.73,39.79-35.1,59.53-52.82,4.38-3.93,7.39-3.51,11,.67C114.15,143.09,119.08,148.2,124.06,153.63Z"/><path class="cls-1" d="M52.11,109.13A21.35,21.35,0,0,1,73.15,88c11.46-.08,21.33,9.52,21.45,20.85.12,11.64-10,21.81-21.51,21.64A21.53,21.53,0,0,1,52.11,109.13ZM73.53,122.6a13.28,13.28,0,0,0,13.18-13.7A13.44,13.44,0,0,0,73,95.61a13.5,13.5,0,1,0,.48,27Z"/></g></svg>