<svg id="Layer_1" data-name="Layer 1" xmlns="http://www.w3.org/2000/svg" viewBox="0 0 244 245"><title>ICONS</title><g id="QSdSre.tif"><path d="M20.28,209.09V45.63c5.09-10,13.48-13.31,24.32-12.49,6.95.53,14,.1,20.53.1,2.08-7.25-2.18-14.82,5-19.47h4.16c7.52,4.68,2.46,12.81,5.09,19.07h36.23l5.78-19.07h5.54l5.64,18.9h36.59c2-6.63-2.35-14.24,4.87-18.9h4.16c7.53,4.69,2.43,12.87,5.28,19.47,7.72,0,15.51,0,23.31,0,14.7.06,21.19,6.45,21.2,21q0,73,0,145.93c0,15-6.35,21.35-21.43,21.35-54.18,0-108.35-.2-162.53.18C33.28,221.73,25.25,218.87,20.28,209.09ZM65.88,46.17c-8.45,0-16,0-23.58,0-8.63,0-9,.39-9,9q0,72,0,144c0,9.13.64,9.77,9.88,9.78q81,0,162,0c9.23,0,10.25-1.05,10.26-10.42q0-71.32,0-142.65c0-1.84.32-3.92-.42-5.45s-2.61-3.87-4-3.93c-9.35-.35-18.71-.18-28.54-.18,0,4.71.78,8.62-.25,12-.82,2.7-3.5,6.22-5.92,6.74-4.31.92-6.48-2.51-6.5-6.88,0-3.66,0-7.32,0-11.49H130.7c0,4.18.81,8.31-.27,11.86-.81,2.67-4,4.6-6.2,6.86-2.19-2.22-5.49-4.1-6.3-6.75-1.09-3.55-.27-7.69-.27-12H78.57c0,4.11,0,7.76,0,11.41,0,4.35-1.91,7.32-6.46,7.25s-6.28-3.19-6.24-7.49C65.91,54.37,65.88,50.93,65.88,46.17Z"/><path d="M91.15,92v18.43H66.48V92Z"/><path d="M157.17,92.07H182v18.37H157.17Z"/><path d="M66.47,124.72H91.2v18.46H66.47Z"/><path d="M157.23,124.65h24.62v18.62H157.23Z"/><path d="M66.4,157H91.14v18.64H66.4Z"/><path d="M157.21,157H182V175.4H157.21Z"/><path d="M136.37,110.56H111.84V92.15h24.53Z"/><path d="M111.94,124.8h24.61v18.41H111.94Z"/><path d="M111.71,175.31v-18.2h24.66v18.2Z"/></g></svg>