<svg id="Layer_1" data-name="Layer 1" xmlns="http://www.w3.org/2000/svg" viewBox="0 0 244 245"><defs><style>.cls-1{fill:#333;}.cls-2{fill:#f1e1ae;}</style></defs><title>ICONS</title><path class="cls-1" d="M126.2,48.25c40.72,0,73,32.72,73,73.92,0,39.81-32.94,72.31-73.15,72.27-41.5,0-73.42-32.4-73.37-74.35C52.69,80.51,85.75,48.23,126.2,48.25ZM126,62.42c-32.51,0-59.09,26.33-59.14,58.63s26.13,58.63,57.56,59.38c30.47.73,60.42-23.53,60.58-59.23C185.1,88.86,158.43,62.44,126,62.42Z"/><path class="cls-1" d="M118.84,19.74c0-3.28-.19-6.57,0-9.84.29-3.93,2.54-6.31,6.57-6.61,3.87-.29,7.17,2.22,7.34,6.27.3,7.17.33,14.37,0,21.54-.19,3.94-3,6.14-7,6.13S119.3,34.91,119,31c-.33-3.72-.07-7.49-.07-11.24Z"/><path class="cls-1" d="M133,222.82c0,3.12.13,6.25,0,9.37-.23,4.44-3,7.19-7,7.24-4.14,0-7-2.52-7.11-7-.19-6.71-.2-13.43,0-20.14.13-4.25,2.9-6.68,6.88-6.73s6.62,2.34,7.16,6.51a7.29,7.29,0,0,1,0,.93Q133,217.91,133,222.82Z"/><path class="cls-1" d="M204.77,207.8c-2.34-1.29-4.2-1.89-5.48-3.1-4.65-4.4-9.18-8.94-13.63-13.55-3.23-3.35-3.23-7.48-.25-10.4,2.83-2.77,6.84-2.85,10.09.23,4.77,4.51,9.64,9,13.76,14,1.51,1.85,1.89,5.61,1.15,8C209.81,205,206.8,206.19,204.77,207.8Z"/><path class="cls-1" d="M69,57.84c-1.16,1.53-2.24,4.4-4.11,5.06-2.28.81-6,.75-7.71-.66A165.26,165.26,0,0,1,41.81,47.11c-2.52-2.75-2.17-6.13.28-9s6-3.59,8.42-1.45C56.58,42,62.07,48,67.69,53.84,68.36,54.53,68.36,55.86,69,57.84Z"/><path class="cls-1" d="M212.48,42.26c-1.51,2.57-2.29,4.66-3.69,6.17-4.16,4.45-8.52,8.72-12.9,13-3.43,3.31-7.47,3.48-10.43.64s-3-7,.17-10.38c4.42-4.63,8.76-9.42,13.69-13.46a10.26,10.26,0,0,1,8-1.52C209.31,37.17,210.66,40.15,212.48,42.26Z"/><path class="cls-1" d="M46.33,207.43c-1.55-1.24-4.26-2.38-5-4.28-.83-2.11-.84-5.75.47-7.29A172.5,172.5,0,0,1,57.27,180.2c2.73-2.47,6.23-2.08,9,.44,2.57,2.36,3.59,5.82,1.28,8.44C62.26,195,56.46,200.49,50.75,206,50,206.79,48.43,206.79,46.33,207.43Z"/><path class="cls-1" d="M24.7,128.42c-3.28,0-6.57.11-9.84,0-4.45-.19-7.08-2.95-7.06-7.1s2.77-6.89,7.2-7c6.56-.14,13.13-.15,19.69,0,4.43.11,7.1,3,7,7.11s-2.72,6.8-7.19,7C31.27,128.51,28,128.42,24.7,128.42Z"/><path class="cls-1" d="M227.38,114.28c3.13,0,6.26-.1,9.38,0,4.36.18,7.2,3,7.23,7s-2.84,7-7.16,7.06q-9.85.21-19.71,0c-4.3-.08-7.28-3.1-7.31-7s2.89-6.78,7.24-7.11c.31,0,.63,0,.94,0Z"/><circle class="cls-2" cx="125.9" cy="121.43" r="52.64"/></svg>