<svg id="Layer_1" data-name="Layer 1" xmlns="http://www.w3.org/2000/svg" viewBox="0 0 244 245"><title>ICONS</title><g id="oVssOh.tif"><path d="M3.75,111.32C9.11,101.18,17.18,95.9,29,96.39c2.06.09,5.18-1.86,6.15-3.73a80.38,80.38,0,0,0,6.79-17c.6-2.38-1.06-6.09-2.86-8.17-6.53-7.53-8.5-16-5.87-25.35,3.18-11.29,18-18.29,29.37-13C68.83,32,74.1,37.49,79,42.58c1.4,1.45,0,5.61-.11,8.53-2.66-.47-5.75-.24-7.89-1.56-3.11-1.92-5.4-5.12-8.29-7.47-5.18-4.21-10.69-5-15.81,0s-5.54,11.53-.39,15.57c12,9.43,10.81,19.14,3,30a5.18,5.18,0,0,0-.84,2.24c-1.88,13.67-8.45,20.71-23.43,18.73-6.44-.85-10.12,4.21-10,10.86s4,11.4,10.42,10.54c14.61-2,18.76,5.85,23.5,18,5.15,13.27,10,23.82-3.69,34.57-4.41,3.46-2.84,9.49,1.17,13.6,4.28,4.39,9.23,5,14.46,1.47.44-.3,1-.49,1.32-.89,8.72-12.56,18.92-11,29.83-3.2a5.19,5.19,0,0,0,2.24.84c13.64,1.9,20.74,8.42,18.74,23.43C112.35,224.35,117.4,228,124,228s11.41-4,10.55-10.4c-2-14.6,6-18.56,18-23.56,13.45-5.6,23.81-9.74,34.57,3.71,3.51,4.4,10.24,3.35,13.36-1.27,2.26-3.36,3.22-9.08,2-12.88-1.32-4.2-6.21-7.15-8.69-11.17-1.42-2.3-1.12-5.65-1.6-8.53,3.1.15,7.22-.91,9.12.68,7.36,6.16,14.12,12.85,14.24,23.81.11,9.38-3.77,16.29-11.62,20.32s-16,3.48-23.63-1.32c-3.73-2.34-7.9-6.87-11.23-6.34-6.92,1.09-13.52,4.66-20,7.74-1.38.66-2.46,3.61-2.37,5.44.61,11.8-4.71,19.9-14.86,25.25h-16c-7.67-4.44-14.67-10-14.31-19.6.32-8.58-2.94-12.88-10.95-14.49a14.66,14.66,0,0,1-5.18-2.06c-5.83-3.91-10.23-2.4-15.48,2-10.84,9-24.29,7.79-32.85-2-7.36-8.42-6.61-20.79,1.56-31.48,1.78-2.32,4.08-5.81,3.5-8.08a96.61,96.61,0,0,0-7.34-18.51c-.8-1.62-3.89-3.08-5.86-3-11.78.54-19.86-4.76-25.21-14.89Z"/><path d="M131.88-.8C142,4.55,147.31,12.62,146.77,24.41c-.09,2,1.37,5.05,3,5.86a96.6,96.6,0,0,0,18.51,7.34c2.27.59,5.75-1.72,8.08-3.5,10.69-8.17,23.06-8.92,31.48-1.56,9.79,8.55,11,22,2,32.85-4.38,5.25-5.9,9.65-2,15.48a14.64,14.64,0,0,1,2.06,5.18c1.61,8,5.91,11.27,14.49,10.95,9.59-.35,15.16,6.64,19.6,14.31v16c-7.1,14.81-20.13,16-34,14.29-2.16-.26-4-3.34-6-5.12,2.06-2,3.83-5,6.23-5.66,4-1,8.49-.25,12.72-.69,6.28-.66,9.52-4.51,9.54-10.76s-3.35-11.48-9.37-10.64c-16.38,2.28-22.36-6.53-24.69-20.44a1.71,1.71,0,0,0-.29-.74c-8.44-11-8.43-20.52,3.07-30,4.82-4,4.65-10.75-.59-15.66S189,37.33,185,42.37c-8.62,10.81-17.35,11-28,3.45-3.35-2.37-7.85-3.54-12-4.25-7.95-1.37-10.28-5.88-10.12-13.5.28-13-2.93-17.48-11.08-17.43S113,15.09,112.74,28.22c0,1.6.5,3.6-.26,4.72-1.57,2.32-3.83,4.18-5.8,6.23-1.77-2-4.85-3.8-5.11-6C99.91,19.33,101,6.28,115.87-.8Z"/><path d="M152.84,120.47c-.79,9.18-4.6,18.18-14.39,23.7s-20,5.66-29.56-.48c-2.31-1.49-3.06-5.39-4.52-8.19,3.25-.62,7-2.57,9.67-1.64,11.71,4,19.62,2.53,24.5-5.71,5-8.51,2.45-18.69-6-23.58-8.82-5.12-19.22-2.12-23.85,7a24.07,24.07,0,0,0-2.07,6c-.84,4.12-2.84,8-7.22,6-2.23-1-4.17-6-3.8-8.89,1.88-14.49,15.68-25.27,30-24.26C140.65,91.49,152.6,104,152.84,120.47Z"/></g></svg>