<svg id="Layer_1" data-name="Layer 1" xmlns="http://www.w3.org/2000/svg" viewBox="0 0 244 245"><title>ICONS</title><g id="wUBecl.tif"><path d="M155.72,129.11c-25.26,0-50.53.27-75.78-.28-3.93-.08-10.82-3.55-11.09-6-.85-7.75,6-7,11.38-7,50.91,0,101.81-.14,152.72.26,3.84,0,10.59,3.48,10.93,6,1.09,8-6,7-11.22,7C207,129.15,181.37,129.11,155.72,129.11Z"/><path d="M156.49,56.3q-36.8,0-73.6,0c-3.43,0-7.1.24-10.21-.87-2-.71-4.4-3.75-4.35-5.69S70.9,45,73,44.19c2.71-1.05,6-.67,9.08-.67q74.17,0,148.35,0c2.68,0,5.66-.57,8,.41s6,4.22,5.65,5.36c-.83,2.61-3.47,5.92-5.93,6.48-4.75,1.08-9.89.53-14.87.53Q189.84,56.33,156.49,56.3Z"/><path d="M156.65,188.64c25.3,0,50.59-.09,75.89.08,5,0,12.42-1.4,11.28,6.87-.33,2.42-7.32,5.56-11.27,5.59q-76.46.56-152.92,0c-3.9,0-7.76-4-11.64-6.08,3.88-2.14,7.71-6.05,11.64-6.14C105.29,188.37,131,188.64,156.65,188.64Z"/><path d="M52.82,195.35A26.42,26.42,0,1,1,0,194.29a26.42,26.42,0,0,1,52.83,1.06Zm-13.37-.14c-.92-8-5-13.1-13.27-12.92s-12.81,5-12.56,13.27c.23,7.68,4.8,12.12,12.41,12.31C34.3,208.06,38.54,203.23,39.46,195.2Z"/><path d="M52.75,122.79c-.14,13.6-10.37,24.61-24.18,26-12.58,1.29-25.91-8-27.81-20.5-.56-3.71,2.28-7.94,3.57-11.93,3,2.52,7.83,4.5,8.81,7.66,2.43,7.88,7.23,12.78,14.76,10.88,4.41-1.11,9.62-6.48,10.9-11,2.26-7.89-3.49-12.12-10.79-14.9-3.07-1.17-5.09-5.12-7.59-7.81,3.69-1.54,7.58-4.75,11-4.33C44,98.45,52.89,109.9,52.75,122.79Z"/><path d="M52.82,50.12A26.42,26.42,0,1,1,0,49.06a26.42,26.42,0,0,1,52.83,1.06ZM39.46,50c-.92-8-5-13.1-13.27-12.92S13.38,42,13.63,50.32C13.86,58,18.43,62.45,26,62.63,34.3,62.83,38.54,58,39.46,50Z"/></g></svg>